<mxfile host="app.diagrams.net" modified="2023-08-07T10:56:43.216Z" agent="Mozilla/5.0 (Macintosh; Intel Mac OS X 10_15_7) AppleWebKit/537.36 (KHTML, like Gecko) Chrome/115.0.0.0 Safari/537.36" version="21.5.0" etag="HAtL5O1HxU4S2Lwsnexx" type="github">
  <diagram name="第 1 页" id="K5C1WVjptHyTia_ej2oq">
    <mxGraphModel>
      <root>
        <mxCell id="0" />
        <mxCell id="1" parent="0" />
      </root>
    </mxGraphModel>
  </diagram>
</mxfile>
